<svg xmlns="http://www.w3.org/2000/svg" viewBox="0 0 41.85 37.41"><defs><style>.cls-1{fill:none;}.cls-1,.cls-2{stroke:#fff;stroke-miterlimit:10;}.cls-2{fill:#fff;}</style></defs><title>mail1</title><g id="OBJECTS"><polygon class="cls-1" points="20.93 0.58 39.77 12 1.99 12.08 20.93 0.58"/><path class="cls-2" d="M223.72,203.52h0a3.65,3.65,0,0,1-3.66,3.65H186.52a3.65,3.65,0,0,1-3.65-3.65V184.23a4.34,4.34,0,0,1,0-.63l19.28,12,.07,0,.08,0a2.47,2.47,0,0,0,.42.17h0a2.63,2.63,0,0,0,.48.06h0a2.63,2.63,0,0,0,.48-.06h0a1.94,1.94,0,0,0,.42-.17.2.2,0,0,0,.08,0l.07,0,19.28-12a3.28,3.28,0,0,1,.06.63Z" transform="translate(-182.37 -170.26)"/></g></svg>